<svg width="112" height="112" viewBox="0 0 112 112" fill="none" xmlns="http://www.w3.org/2000/svg">
    <path d="M36.9636 68.3478L34.8713 65.5581C34.1739 64.8607 33.4765 64.8607 32.779 64.1632C32.0816 63.4658 32.0816 63.4658 31.3842 62.7684C30.6868 62.071 30.6868 62.071 29.9893 61.3735C27.1996 59.9787 23.7125 60.6761 21.6202 62.071L20.2254 62.7684C20.2254 63.4658 19.5279 64.1632 19.5279 64.8607C18.1331 66.9529 18.1331 69.7426 18.8305 71.8349C19.5279 73.9272 21.6202 75.3221 23.0151 77.4143L29.2919 83.6912L34.1739 88.5732C34.1739 88.5732 34.8713 88.5732 34.8713 89.2706C36.9636 91.3629 38.3585 92.7577 41.1482 93.4551C42.543 94.1526 44.6353 94.85 46.7276 94.85H76.7169C78.1118 94.85 79.5066 94.1526 80.9015 93.4551C80.9015 92.7577 81.5989 92.7577 81.5989 92.7577C82.9937 91.3629 83.6912 89.2706 83.6912 87.1783V62.7684C83.6912 59.2812 82.2963 56.4915 79.5066 55.0967C77.4143 54.3993 75.3221 54.3993 73.2298 55.0967C72.5323 55.0967 72.5323 55.0967 72.5323 55.0967C71.8349 55.0967 71.8349 55.0967 71.8349 55.0967C71.8349 54.3993 71.8349 54.3993 71.1375 54.3993C70.4401 53.7018 70.4401 53.7018 69.7426 53.7018C67.6504 52.307 64.1632 52.307 62.071 53.7018C61.3735 53.0044 59.9787 52.307 59.2812 51.6096C58.5838 51.6096 58.5838 51.6096 58.5838 51.6096C57.8864 50.9121 57.189 50.9121 56.4915 50.9121C55.7941 50.9121 54.3993 50.9121 53.7018 50.9121C53.7018 50.9121 53.7018 50.9121 53.0044 50.9121C53.0044 45.3327 53.0044 39.7533 53.0044 34.1739C53.0044 31.3842 53.0044 29.9893 51.6096 27.8971C50.9121 27.1996 50.9121 27.1996 50.2147 26.5022C48.8199 25.1074 46.7276 24.4099 45.3327 24.4099C43.9379 24.4099 43.2404 24.4099 41.8456 25.1074C41.1482 25.1074 40.4507 25.8048 39.7533 26.5022C38.3585 27.1996 37.661 28.5945 36.9636 29.9893C36.2662 32.0816 36.9636 34.1739 36.9636 36.2662V68.3478ZM55.7941 0C71.1375 0 85.086 6.27684 94.85 16.0408C105.311 26.5022 111.588 40.4507 111.588 55.7941C111.588 71.1375 105.311 85.086 94.85 94.85C85.086 105.311 71.1375 111.588 55.7941 111.588C40.4507 111.588 26.5022 105.311 16.0408 94.85C6.27684 85.086 0 71.1375 0 55.7941C0 40.4507 6.27684 26.5022 16.0408 16.0408C26.5022 6.27684 40.4507 0 55.7941 0ZM91.3629 20.2254C82.2963 11.1588 69.7426 5.57941 55.7941 5.57941C41.8456 5.57941 29.2919 11.1588 20.2254 20.2254C11.1588 29.2919 5.57941 41.8456 5.57941 55.7941C5.57941 69.7426 11.1588 82.2963 20.2254 91.3629C29.2919 100.429 41.8456 106.009 55.7941 106.009C69.7426 106.009 82.2963 100.429 91.3629 91.3629C100.429 82.2963 106.009 69.7426 106.009 55.7941C106.009 41.8456 100.429 29.2919 91.3629 20.2254ZM28.5945 32.0816C28.5945 35.5687 29.2919 38.3585 31.3842 41.1482C32.0816 41.8456 32.0816 41.8456 32.0816 42.543C32.779 42.543 32.779 43.2404 33.4765 43.2404C33.4765 41.1482 33.4765 38.3585 33.4765 36.2662L32.779 35.5687C32.0816 31.3842 33.4765 27.1996 36.2662 23.7125L37.661 23.0151C39.7533 21.6202 41.8456 20.2254 43.9379 20.2254C46.7276 20.2254 48.1224 20.2254 50.2147 21.6202C50.9121 21.6202 50.9121 21.6202 50.9121 21.6202C51.6096 22.3176 53.7018 23.7125 54.3993 24.4099C54.3993 25.1074 54.3993 25.1074 55.0967 25.8048C57.189 28.5945 57.8864 32.0816 57.189 35.5687L56.4915 36.2662C56.4915 36.9636 56.4915 37.661 56.4915 38.3585C56.4915 39.7533 56.4915 41.8456 56.4915 43.9379C57.189 43.2404 57.189 43.2404 57.189 43.2404C58.5838 41.8456 57.8864 42.543 59.2812 40.4507C59.2812 40.4507 59.2813 39.7533 59.9787 39.0559C62.071 34.1739 61.3735 29.2919 59.2812 24.4099C57.189 21.6202 55.0967 19.5279 52.307 18.1331C50.2147 17.4357 48.1224 16.7382 46.0301 16.7382H43.9379C41.8456 16.7382 39.7533 17.4357 38.3585 18.1331C36.9636 18.8305 36.2662 18.8305 35.5687 19.5279C33.4765 20.9228 31.3842 23.0151 30.6868 25.8048C29.2919 27.1996 28.5945 29.9893 28.5945 32.0816Z" fill="#FFCC00"/>
</svg>
