<svg width="112" height="112" viewBox="0 0 112 112" fill="none" xmlns="http://www.w3.org/2000/svg">
    <path d="M55.7941 76.818L56.6027 74.3922C57.4113 74.3922 57.4113 74.3922 57.4113 74.3922L61.4544 68.7319V67.9233C61.4544 67.1147 62.263 67.1147 62.263 67.1147L63.0716 64.6888C63.8802 64.6888 63.8802 64.6888 63.8802 63.8802C64.6888 63.0716 65.4974 62.263 66.306 60.6458L67.1147 59.0286C67.1147 58.2199 67.1147 58.2199 67.1147 58.2199C67.9233 56.6027 68.7319 55.7941 69.5405 54.1769C69.5405 53.3683 70.3491 52.5597 70.3491 51.7511L73.5835 45.2822C73.5835 44.4736 73.5835 44.4736 74.3922 43.665C74.3922 42.0477 75.2008 39.6219 75.2008 38.0047C75.2008 35.5789 75.2008 33.153 73.5835 29.9186C73.5835 29.9186 73.5835 29.9186 73.5835 29.11L72.7749 27.4928C72.7749 27.4928 72.7749 27.4928 71.9663 27.4928L70.3491 24.2583L68.7319 23.4497C67.9233 21.8325 66.3061 21.0239 65.4974 20.2153C64.6888 20.2153 64.6888 20.2153 64.6888 20.2153L62.263 19.4066C59.0286 17.7894 54.1769 17.7894 50.9425 18.598C50.1338 18.598 49.3252 19.4066 48.5166 19.4066H47.708C46.8994 20.2153 46.0908 20.2153 45.2822 21.0239C44.4736 21.0239 43.665 21.8325 42.8563 22.6411C42.8563 22.6411 42.8563 22.6411 42.8563 23.4497L41.2391 24.2583C40.4305 25.0669 40.4305 25.8755 39.6219 25.8755C38.8133 27.4928 38.0047 28.3014 38.0047 29.11C37.1961 30.7272 37.1961 31.5358 36.3875 33.153C36.3875 33.9616 36.3875 35.5789 36.3875 37.1961C36.3875 38.0047 36.3875 39.6219 36.3875 41.2391C36.3875 42.0477 37.1961 42.8563 37.1961 43.665L38.8133 47.708C38.8133 48.5166 39.6219 48.5166 39.6219 49.3252V50.1338C40.4305 51.7511 41.2391 53.3683 42.0477 54.1769C42.8563 55.7941 43.665 57.4113 44.4736 59.0286L47.708 63.8802C48.5166 65.4974 49.3252 67.1147 50.1338 68.7319C50.9425 68.7319 50.9425 69.5405 50.9425 69.5405C51.7511 71.1577 53.3683 72.7749 54.1769 74.3922C54.9855 75.2008 54.9855 76.0094 55.7941 76.818ZM55.7941 0C71.1577 0 84.9041 6.46888 95.416 16.1722C105.119 26.6841 111.588 40.4305 111.588 55.7941C111.588 71.1577 105.119 84.9041 95.416 95.416C84.9041 105.119 71.1577 111.588 55.7941 111.588C40.4305 111.588 26.6841 105.119 16.1722 95.416C6.46888 84.9041 0 71.1577 0 55.7941C0 40.4305 6.46888 26.6841 16.1722 16.1722C26.6841 6.46888 40.4305 0 55.7941 0ZM91.373 20.2153C82.4783 11.3205 69.5405 5.66027 55.7941 5.66027C42.0477 5.66027 29.11 11.3205 20.2153 20.2153C11.3205 29.11 5.66027 42.0477 5.66027 55.7941C5.66027 69.5405 11.3205 82.4783 20.2153 91.373C29.11 100.268 42.0477 105.928 55.7941 105.928C69.5405 105.928 82.4783 100.268 91.373 91.373C100.268 82.4783 105.928 69.5405 105.928 55.7941C105.928 42.0477 100.268 29.11 91.373 20.2153ZM71.9663 66.306C72.7749 66.306 73.5835 66.3061 74.3922 67.1147C76.0094 67.1147 78.4352 67.9233 80.0524 68.7319H80.861C80.861 68.7319 80.861 68.7319 81.6696 68.7319L82.4783 69.5405C84.0955 70.3491 86.5213 71.1577 88.1385 72.7749L88.9471 73.5835C90.5644 75.2008 91.373 76.818 91.373 79.2438C91.373 82.4783 90.5644 84.0955 88.9471 86.5213C88.1385 86.5213 87.3299 87.3299 86.5213 88.1385C84.9041 88.9471 82.4783 89.7557 80.861 90.5644C79.2438 91.373 77.6266 91.373 76.818 92.1816C75.2008 92.1816 73.5835 92.9902 72.7749 92.9902L65.4974 93.7988C64.6888 94.6074 63.8802 94.6074 63.0716 94.6074C62.263 94.6074 60.6458 94.6074 59.8372 94.6074C59.0286 94.6074 57.4113 94.6074 55.7941 94.6074C54.1769 94.6074 52.5597 94.6074 50.9425 94.6074H50.1338C49.3252 94.6074 48.5166 94.6074 47.708 94.6074H46.8994L42.8563 93.7988C41.2391 93.7988 40.4305 92.9902 38.8133 92.9902C37.1961 92.9902 36.3875 92.1816 35.5789 92.1816C33.9616 92.1816 32.3444 91.373 30.7272 90.5644C29.11 89.7557 26.6841 88.9471 25.0669 88.1385C24.2583 87.3299 24.2583 87.3299 23.4497 86.5213L21.8325 84.9041C20.2153 83.2869 19.4066 81.6696 19.4066 79.2438C19.4066 78.4352 20.2153 76.818 20.2153 76.0094C21.0239 74.3922 22.6411 72.7749 24.2583 71.9663C25.8755 71.1577 26.6841 70.3491 28.3014 69.5405C28.3014 69.5405 28.3014 69.5405 29.11 69.5405L30.7272 68.7319L33.9616 67.9233C35.5789 67.1147 38.0047 66.306 39.6219 66.306C40.4305 66.306 40.4305 66.306 41.2391 66.306C41.2391 67.1147 42.0477 67.9233 42.0477 68.7319C42.8563 68.7319 42.8563 69.5405 42.8563 69.5405C42.8563 70.3491 42.8563 70.3491 42.8563 71.1577C42.8563 71.1577 42.8563 71.9663 42.0477 71.9663C41.2391 71.9663 39.6219 71.9663 38.8133 72.7749C38.0047 72.7749 36.3875 72.7749 34.7702 73.5835C33.153 74.3922 30.7272 75.2008 29.11 76.0094L28.3014 76.818C27.4928 76.818 26.6841 77.6266 26.6841 77.6266C25.8755 78.4352 25.8755 79.2438 25.8755 80.0524C25.8755 80.861 27.4928 82.4783 29.11 83.2869C29.11 83.2869 29.11 83.2869 29.9186 84.0955L33.153 85.7127C33.9616 85.7127 34.7702 85.7127 35.5789 85.7127C35.5789 85.7127 35.5789 85.7127 36.3875 86.5213C39.6219 87.3299 42.8563 87.3299 46.0908 88.1385C47.708 88.1385 48.5166 88.1385 49.3252 88.1385L52.5597 88.9471H53.3683H54.1769C54.9855 88.9471 56.6027 88.9471 56.6027 88.9471C57.4113 88.9471 57.4113 88.9471 58.2199 88.9471H59.8372C61.4544 88.9471 63.0716 88.1385 63.8802 88.1385C69.5405 88.1385 74.3922 86.5213 79.2438 84.9041C80.0524 84.9041 80.0524 84.0955 80.0524 84.0955C80.861 84.0955 80.861 84.0955 80.861 84.0955H81.6696L82.4783 83.2869C82.4783 83.2869 83.2869 83.2869 83.2869 82.4783C85.7127 80.861 86.5213 79.2438 84.0955 77.6266C83.2869 76.0094 81.6696 76.0094 80.0524 75.2008C79.2438 74.3922 78.4352 74.3922 77.6266 73.5835C76.0094 73.5835 74.3922 72.7749 72.7749 72.7749C71.9663 72.7749 71.1577 71.9663 71.1577 71.9663H69.5405C68.7319 71.9663 68.7319 71.1577 67.9233 71.1577C67.9233 70.3491 67.9233 70.3491 68.7319 69.5405L70.3491 67.1147C70.3491 67.1147 70.3491 67.1147 70.3491 66.306C70.3491 66.306 71.1577 66.306 71.9663 66.306Z" fill="#FFCC00"/>
</svg>
