<svg width="49" height="66" viewBox="0 0 49 66" fill="none" xmlns="http://www.w3.org/2000/svg">
    <path fill-rule="evenodd" clip-rule="evenodd"
          d="M23.7134 66H24.9599C26.2063 64.7778 26.2063 64.7778 27.4527 63.5555C33.6849 58.6667 39.917 50.1111 43.6563 42.7778C49.8884 31.7778 51.1348 20.7778 44.9027 9.77778C42.4098 6.11111 37.2482 2.44444 32.4384 1.22222C29.7697 0 26.2063 0 26.2063 0H23.8893C22.467 0 16.2349 0 11.2492 3.66667C2.34831 9.77778 -2.4615 20.7778 1.27778 31.7778C3.77063 41.5555 10.0028 51.3333 16.2349 58.6667L18.7277 61.1111C19.9742 62.3333 19.9742 62.3333 21.2206 63.5555C22.467 64.7778 22.467 64.7778 23.7134 66ZM24.9599 57.4444C24.9599 57.4444 28.6991 52.5555 29.9456 51.3333C33.6849 46.4444 40.9875 37.8889 42.2339 30.5556C43.4759 23.2486 42.4098 18.3333 39.917 13.4444C33.6848 3.66667 16.2349 3.66667 10.0028 13.4444C6.26348 18.3333 6.26348 24.4444 7.50991 30.5556C8.75633 36.6667 14.9885 45.2222 14.9885 45.2222C14.9885 45.2222 18.5518 51.3333 19.7983 52.5555L23.7134 56.2222C23.7134 56.2222 24.784 57.4444 24.9599 57.4444ZM23.7134 11C16.2349 12.2222 11.2492 18.3333 12.4956 25.6667C12.4956 31.7778 18.7277 36.6667 26.2063 36.6667C32.4384 35.4444 37.4241 29.3333 37.4241 22C36.1777 15.8889 29.9456 11 23.7134 11ZM22.467 15.8889C18.7277 17.1111 16.2349 20.7778 16.2349 25.6667C17.4813 29.3333 21.2206 31.7778 26.2063 31.7778C29.9456 30.5556 32.4384 26.8889 32.4384 22C31.192 18.3333 27.4527 15.8889 22.467 15.8889Z"
          fill="black"/>
</svg>
