<svg width="210" height="46" viewBox="0 0 210 46" fill="none" xmlns="http://www.w3.org/2000/svg">
    <rect width="42.7273" height="45.4545" fill="#FFCC00"/>
    <path d="M60.4505 15.3236H63.5398V11.6727C63.5398 9.23865 61.5738 7.27275 59.1399 7.27275H57.1272C54.74 7.27275 52.7273 9.23869 52.7273 11.6727V35.638C52.7273 38.072 54.74 40.0379 57.1272 40.0379H59.1399C61.5739 40.0379 63.5398 38.072 63.5398 35.638V30.6296H60.4505V35.638C60.4505 36.3869 59.842 36.9486 59.1399 36.9486H57.1272C56.425 36.9486 55.8166 36.3869 55.8166 35.638V11.6727C55.8166 10.9705 56.425 10.362 57.1272 10.362H59.1399C59.8888 10.362 60.4505 10.9705 60.4505 11.6727V15.3236ZM68.4545 36.9486V40.0379H76.8799V36.9486H74.2118V25.0595L79.5947 7.27275H76.4118L72.6672 20.332L69.063 7.27275H65.8801L71.1226 25.1064V36.9486H68.4545ZM81.9351 7.27275V40.0379H89.3306C91.7646 40.0379 93.7305 38.072 93.7305 35.638V26.4638C93.7305 24.8723 92.888 23.0468 91.0625 22.3915C92.888 21.6426 93.7305 19.4895 93.7305 17.8981V11.6727C93.7305 9.23869 91.7646 7.27279 89.3306 7.27279H81.9351V7.27275ZM88.2541 20.9405H85.0244V10.362H89.3307C90.0796 10.362 90.6413 10.9705 90.6413 11.6727V17.7576C90.6413 19.5363 90.0796 20.9405 88.2541 20.9405ZM85.0244 23.7958H87.9265C89.6583 23.7958 90.6413 24.0298 90.6413 26.1361V35.638C90.6413 36.3869 90.0796 36.9486 89.3307 36.9486H85.0244V23.7958ZM106.415 10.362V7.27275H97.4751V40.0379H106.369V36.9486H100.564V23.7958H105.666V20.9405H100.564V10.362H106.415H106.415ZM112.781 20.9405V10.362H116.666C117.368 10.362 117.977 10.9705 117.977 11.6727V17.9448C117.977 19.9107 117.087 20.9405 115.168 20.9405H112.781ZM109.692 7.27275V40.0379H112.781V23.7958H115.636C117.181 23.7958 117.977 24.5447 117.977 26.1361V40.0379H121.066V25.9021C121.066 24.217 120.177 22.8128 118.304 22.3915C120.27 21.4554 121.066 20.098 121.066 18.132V11.6726C121.066 9.28544 119.053 7.27272 116.666 7.27272H109.692V7.27275ZM140.959 15.3237H144.048V11.6727C144.048 9.23869 142.083 7.27279 139.649 7.27279H137.636C135.249 7.27279 133.236 9.28552 133.236 11.6727V35.638C133.236 38.072 135.202 40.0379 137.636 40.0379H139.649C142.083 40.0379 144.048 38.072 144.048 35.638V23.7958H138.946V26.6511H140.959V35.6381C140.959 36.387 140.351 36.9487 139.649 36.9487H137.636C136.934 36.9487 136.325 36.387 136.325 35.6381V11.6727C136.325 10.9706 136.934 10.3621 137.636 10.3621H139.649C140.397 10.3621 140.959 10.9706 140.959 11.6727V15.3237V15.3237ZM149.993 40.0379L151.35 30.3956H156.827L158.231 40.0379H161.32L156.874 7.27279H151.304L146.857 40.0379H149.993ZM154.206 10.3153L156.499 27.5404H151.678L153.972 10.3153H154.206ZM179.575 40.0379H182.665V7.27279H178.218L173.444 32.97L168.529 7.27279H164.129V40.0379H167.218V26.0894L166.376 12.8429L166.703 12.7961L171.805 40.038H175.082L180.231 12.7961L180.558 12.8429L179.575 26.0894V40.0379H179.575ZM195.349 10.3621V7.27279H186.409V40.0379H195.302V36.9486H189.498V23.7958H194.6V20.9405H189.498V10.3621H195.349H195.349ZM201.715 20.9405V10.3621H205.6C206.302 10.3621 206.911 10.9706 206.911 11.6727V17.9448C206.911 19.9108 206.021 20.9405 204.102 20.9405H201.715ZM198.626 7.27279V40.0379H201.715V23.7958H204.57C206.115 23.7958 206.911 24.5447 206.911 26.1361V40.0379H210V25.9021C210 24.217 209.111 22.8128 207.238 22.3915C209.204 21.4554 210 20.098 210 18.1321V11.6727C210 9.28548 207.987 7.27275 205.6 7.27275H198.626V7.27279Z" fill="white"/>
    <path d="M19.4286 7.33131H14.4C12.0129 7.33131 10 9.34443 10 11.7315V35.6979C10 38.1319 11.966 40.0981 14.4 40.0981H19.4286V37.0086H14.4C13.6981 37.0086 13.0893 36.4469 13.0893 35.6979V11.7315C13.0893 11.0291 13.6979 10.4208 14.4 10.4208H19.4286V7.33131Z" fill="black"/>
    <path d="M28.1717 15.3825H31.2611V11.7315C31.2611 9.29729 29.2947 7.33131 26.8609 7.33131H21.8325V10.4208H26.8609C27.6099 10.4208 28.1717 11.0294 28.1717 11.7315V15.3825ZM21.8325 40.0981H26.8609C29.2949 40.0981 31.2611 38.1321 31.2611 35.6979V23.8551H22.1369V26.7104H28.1717V35.6979C28.1717 36.4467 27.5628 37.0086 26.8609 37.0086H21.8325V40.0981V40.0981Z" fill="black"/>
</svg>
