<svg width="452" height="220" viewBox="0 0 452 220" fill="none" xmlns="http://www.w3.org/2000/svg">
    <path d="M22.1829 148.29H31.0561V137.804C31.0561 130.813 25.4095 125.166 18.4186 125.166H12.6375C5.78094 125.166 0 130.813 0 137.804V206.638C0 213.629 5.78104 219.276 12.6375 219.276H18.4186C25.4096 219.276 31.0561 213.629 31.0561 206.638V192.253H22.1829V206.638C22.1829 208.789 20.4353 210.402 18.4186 210.402H12.6375C10.6209 210.402 8.87319 208.789 8.87319 206.638V137.804C8.87319 135.787 10.6209 134.039 12.6375 134.039H18.4186C20.5697 134.039 22.1829 135.787 22.1829 137.804V148.29ZM45.1725 210.402V219.276H69.3721V210.402H61.7089V176.254L77.1697 125.166H68.0277L57.2722 162.676L46.9202 125.166H37.7782L52.8357 176.389V210.402H45.1725ZM83.8919 125.166V219.276H105.134C112.125 219.276 117.771 213.629 117.771 206.638V180.287C117.771 175.716 115.351 170.473 110.108 168.591C115.351 166.44 117.771 160.256 117.771 155.685V137.804C117.771 130.813 112.125 125.166 105.134 125.166H83.8919V125.166ZM102.042 164.423H92.7652V134.039H105.134C107.285 134.039 108.898 135.787 108.898 137.804V155.281C108.898 160.39 107.285 164.423 102.042 164.423ZM92.7652 172.624H101.101C106.075 172.624 108.898 173.296 108.898 179.346V206.638C108.898 208.789 107.285 210.402 105.134 210.402H92.7652V172.624ZM154.205 134.039V125.166H128.527V219.276H154.071V210.402H137.4V172.624H152.054V164.423H137.4V134.039H154.205H154.205ZM172.489 164.423V134.039H183.648C185.665 134.039 187.412 135.787 187.412 137.804V155.819C187.412 161.466 184.858 164.423 179.346 164.423H172.489ZM163.616 125.166V219.276H172.489V172.624H180.69C185.127 172.624 187.412 174.775 187.412 179.346V219.276H196.286V178.674C196.286 173.834 193.731 169.801 188.354 168.591C194 165.902 196.286 162.003 196.286 156.357V137.804C196.286 130.947 190.505 125.166 183.648 125.166H163.616V125.166ZM253.424 148.29H262.297V137.804C262.297 130.813 256.65 125.166 249.659 125.166H243.878C237.022 125.166 231.241 130.947 231.241 137.804V206.638C231.241 213.629 236.887 219.276 243.878 219.276H249.659C256.65 219.276 262.297 213.629 262.297 206.638V172.624H247.643V180.825H253.424V206.638C253.424 208.789 251.676 210.403 249.659 210.403H243.878C241.861 210.403 240.114 208.789 240.114 206.638V137.804C240.114 135.787 241.861 134.04 243.878 134.04H249.659C251.81 134.04 253.424 135.787 253.424 137.804V148.29V148.29ZM279.371 219.276L283.27 191.581H298.999L303.033 219.276H311.906L299.134 125.166H283.135L270.363 219.276H279.371ZM291.471 133.905L298.058 183.38H284.211L290.798 133.905H291.471ZM364.338 219.276H373.212V125.166H360.44L346.727 198.975L332.61 125.166H319.973V219.276H328.846V179.212L326.426 141.165L327.367 141.03L342.021 219.276H351.432L366.221 141.03L367.162 141.165L364.339 179.212V219.276H364.338ZM409.645 134.039V125.166H383.967V219.276H409.511V210.403H392.84V172.624H407.494V164.423H392.84V134.039H409.645H409.645ZM427.93 164.423V134.039H439.088C441.105 134.039 442.853 135.787 442.853 137.804V155.819C442.853 161.466 440.298 164.423 434.786 164.423H427.93ZM419.056 125.166V219.276H427.93V172.624H436.13C440.567 172.624 442.853 174.775 442.853 179.346V219.276H451.726V178.674C451.726 173.834 449.171 169.801 443.794 168.591C449.44 165.902 451.726 162.003 451.726 156.357V137.804C451.726 130.947 445.945 125.166 439.088 125.166H419.056V125.166Z" fill="white"/>
    <path d="M206.839 0H192.395C185.539 0 179.757 5.78215 179.757 12.6385V81.4757C179.757 88.4668 185.404 94.1142 192.395 94.1142H206.839V85.2405H192.395C190.379 85.2405 188.63 83.6271 188.63 81.4757V12.6385C188.63 10.6211 190.378 8.8737 192.395 8.8737H206.839V0Z" fill="white"/>
    <path d="M231.951 23.125H240.824V12.6385C240.824 5.64675 235.176 0 228.186 0H213.743V8.8737H228.186C230.337 8.8737 231.951 10.6219 231.951 12.6385V23.125ZM213.743 94.1141H228.186C235.177 94.1141 240.824 88.4674 240.824 81.4756V47.4602H214.617V55.6616H231.951V81.4757C231.951 83.6264 230.202 85.2405 228.186 85.2405H213.743V94.1142V94.1141Z" fill="white"/>
</svg>
