<svg width="190" height="42" viewBox="0 0 190 42" fill="none" xmlns="http://www.w3.org/2000/svg">
    <rect width="38.658" height="41.1255" fill="#FFCC00"/>
    <path d="M54.6933 13.8642H57.4884V10.561C57.4884 8.35878 55.7097 6.58011 53.5075 6.58011H51.6865C49.5266 6.58011 47.7056 8.35881 47.7056 10.561V32.2439C47.7056 34.4461 49.5267 36.2248 51.6865 36.2248H53.5075C55.7097 36.2248 57.4884 34.4461 57.4884 32.2439V27.7125H54.6933V32.2439C54.6933 32.9215 54.1428 33.4297 53.5075 33.4297H51.6865C51.0512 33.4297 50.5007 32.9215 50.5007 32.2439V10.561C50.5007 9.92573 51.0512 9.37518 51.6865 9.37518H53.5075C54.1851 9.37518 54.6933 9.92573 54.6933 10.561V13.8642ZM61.935 33.4297V36.2248H69.5579V33.4297H67.144V22.6729L72.0142 6.58011H69.1345L65.7465 18.3956L62.4856 6.58011H59.6058L64.349 22.7153V33.4297H61.935ZM74.1317 6.58011V36.2248H80.8229C83.0251 36.2248 84.8038 34.4461 84.8038 32.2439V23.9434C84.8038 22.5035 84.0415 20.8519 82.3899 20.259C84.0415 19.5814 84.8038 17.6333 84.8038 16.1935V10.561C84.8038 8.35881 83.0251 6.58014 80.8229 6.58014H74.1317V6.58011ZM79.8489 18.9462H76.9268V9.37518H80.823C81.5006 9.37518 82.0087 9.92573 82.0087 10.561V16.0664C82.0087 17.6757 81.5006 18.9462 79.8489 18.9462ZM76.9268 21.5295H79.5525C81.1194 21.5295 82.0087 21.7413 82.0087 23.647V32.2439C82.0087 32.9215 81.5006 33.4297 80.823 33.4297H76.9268V21.5295ZM96.2805 9.37518V6.58011H88.1918V36.2248H96.2382V33.4297H90.9868V21.5295H95.6029V18.9462H90.9868V9.37518H96.2805H96.2805ZM102.04 18.9462V9.37518H105.555C106.19 9.37518 106.741 9.92573 106.741 10.561V16.2358C106.741 18.0145 105.936 18.9462 104.2 18.9462H102.04ZM99.245 6.58011V36.2248H102.04V21.5295H104.623C106.021 21.5295 106.741 22.2071 106.741 23.647V36.2248H109.536V23.4352C109.536 21.9106 108.731 20.6401 107.037 20.259C108.816 19.412 109.536 18.1839 109.536 16.4052V10.5609C109.536 8.40111 107.715 6.58008 105.555 6.58008H99.245V6.58011ZM127.534 13.8643H130.33V10.561C130.33 8.35881 128.551 6.58014 126.349 6.58014H124.528C122.368 6.58014 120.547 8.40118 120.547 10.561V32.2439C120.547 34.4461 122.326 36.2248 124.528 36.2248H126.349C128.551 36.2248 130.33 34.4461 130.33 32.2439V21.5295H125.713V24.1129H127.534V32.244C127.534 32.9216 126.984 33.4297 126.349 33.4297H124.528C123.892 33.4297 123.342 32.9216 123.342 32.244V10.561C123.342 9.92579 123.892 9.37524 124.528 9.37524H126.349C127.026 9.37524 127.534 9.92579 127.534 10.561V13.8643V13.8643ZM135.708 36.2248L136.936 27.5008H141.891L143.161 36.2248H145.957L141.933 6.58014H136.894L132.871 36.2248H135.708ZM139.519 9.33288L141.595 24.9175H137.233L139.308 9.33288H139.519ZM162.473 36.2248H165.268V6.58014H161.245L156.925 29.83L152.478 6.58014H148.498V36.2248H151.293V23.6047L150.53 11.6197L150.827 11.5774L155.443 36.2248H158.407L163.066 11.5774L163.362 11.6197L162.473 23.6047V36.2248H162.473ZM176.745 9.37521V6.58014H168.656V36.2248H176.702V33.4297H171.451V21.5295H176.067V18.9462H171.451V9.37521H176.745H176.745ZM182.504 18.9462V9.37521H186.019C186.654 9.37521 187.205 9.92576 187.205 10.561V16.2358C187.205 18.0145 186.4 18.9462 184.664 18.9462H182.504ZM179.709 6.58014V36.2248H182.504V21.5295H185.087C186.485 21.5295 187.205 22.2071 187.205 23.647V36.2248H190V23.4352C190 21.9107 189.195 20.6402 187.501 20.259C189.28 19.412 190 18.1839 190 16.4052V10.561C190 8.40114 188.179 6.58011 186.019 6.58011H179.709V6.58014Z" fill="black"/>
    <path d="M17.5783 6.6333H13.0285C10.8688 6.6333 9.04761 8.45469 9.04761 10.6145V32.2983C9.04761 34.5005 10.8263 36.2794 13.0285 36.2794H17.5783V33.4842H13.0285C12.3935 33.4842 11.8426 32.976 11.8426 32.2983V10.6145C11.8426 9.97895 12.3933 9.42853 13.0285 9.42853H17.5783V6.6333Z" fill="black"/>
    <path d="M25.4887 13.9177H28.2839V10.6145C28.2839 8.41204 26.5047 6.6333 24.3027 6.6333H19.7532V9.42853H24.3027C24.9804 9.42853 25.4887 9.97921 25.4887 10.6145V13.9177ZM19.7532 36.2794H24.3027C26.5049 36.2794 28.2839 34.5007 28.2839 32.2983V21.5834H20.0286V24.1668H25.4887V32.2983C25.4887 32.9758 24.9378 33.4842 24.3027 33.4842H19.7532V36.2794V36.2794Z" fill="black"/>
</svg>
