<svg width="73" height="73" viewBox="0 0 73 73" fill="none" xmlns="http://www.w3.org/2000/svg">
    <path fill-rule="evenodd" clip-rule="evenodd" d="M71.8311 54.0323V64.6956C71.8393 66.6973 71.0015 68.6096 69.5236 69.9628C68.0456 71.316 66.0646 71.9846 64.0671 71.8045C53.1078 70.616 42.5807 66.8785 33.3315 60.8924C24.7264 55.4351 17.4307 48.1539 11.9627 39.5658C5.94369 30.2931 2.19796 19.7357 1.02893 8.74899C0.848983 6.76161 1.51426 4.79026 2.86226 3.31649C4.21026 1.84271 6.11684 1.00223 8.11627 1.00035H18.8007C22.3759 0.965231 25.4233 3.58075 25.9237 7.11396C26.3746 10.5264 27.211 13.8771 28.4167 17.1019C29.3952 19.6997 28.7693 22.6283 26.814 24.6017L22.291 29.1158C27.3609 38.0145 34.7435 45.3825 43.6598 50.4424L48.1829 45.9283C50.1602 43.9768 53.0946 43.3522 55.6976 44.3288C58.9289 45.5321 62.2861 46.3668 65.7054 46.8169C69.2867 47.3211 71.9208 50.4239 71.8311 54.0323Z" fill="black" stroke="black" stroke-width="2" stroke-linecap="round" stroke-linejoin="round"/>
</svg>
