<svg width="19" height="19" viewBox="0 0 19 19" fill="none" xmlns="http://www.w3.org/2000/svg">
    <path fill-rule="evenodd" clip-rule="evenodd" d="M17.9995 13.7278V16.2869C18.0014 16.7673 17.8003 17.2263 17.4457 17.5511C17.091 17.8758 16.6155 18.0363 16.1361 17.9931C13.5059 17.7078 10.9794 16.8108 8.75957 15.3742C6.69433 14.0644 4.94338 12.3169 3.63104 10.2558C2.18649 8.03034 1.28751 5.49657 1.00694 2.85976C0.963756 2.38279 1.12342 1.90966 1.44694 1.55596C1.77046 1.20225 2.22804 1.00053 2.70791 1.00008H5.27217C6.13023 0.991655 6.86159 1.61938 6.98168 2.46735C7.08991 3.28635 7.29063 4.09049 7.58001 4.86445C7.81484 5.48793 7.66464 6.1908 7.19537 6.66441L6.10983 7.7478C7.32662 9.88348 9.09844 11.6518 11.2384 12.8662L12.3239 11.7828C12.7984 11.3144 13.5027 11.1645 14.1274 11.3989C14.9029 11.6877 15.7087 11.888 16.5293 11.996C17.3888 12.1171 18.021 12.8617 17.9995 13.7278Z" stroke="#FFCC00" stroke-width="2" stroke-linecap="round" stroke-linejoin="round"/>
</svg>
