<svg width="155" height="96" viewBox="0 0 155 96" fill="none" xmlns="http://www.w3.org/2000/svg">
    <path fill-rule="evenodd" clip-rule="evenodd" d="M7.49589 4.53699C7.36438 5.19452 7.16712 5.39178 6.90411 5.91781C6.70685 6.31233 6.50959 6.57534 6.31233 7.23288C5.98357 8.35069 5.78631 8.74521 5.72056 10.0603C5.32604 19.1342 7.69315 16.8986 0 17.2931L0.0657574 28.9973C0.986305 28.9973 5.26028 28.6685 5.32603 29.3918L5.52328 65.3589C5.52328 66.937 5.52329 66.3452 4.99726 67.3315H0.131515L0.0657574 79.1671C1.64384 79.1671 4.01096 78.9041 5.26027 79.2986C6.24658 81.7315 4.01096 87.3863 7.95617 91.726C8.08768 91.8575 8.08767 91.8575 8.21918 91.989C8.28493 92.0548 8.35069 92.1206 8.35069 92.1206C9.73151 93.5014 10.126 93.7644 11.7699 94.8822C14.2685 96.526 28.4712 95.8027 32.8767 95.8027C67.6603 95.8027 102.838 95.6712 137.622 95.8027C137.951 95.8027 138.477 95.8685 138.805 95.8027L142.225 94.8822C144.132 94.2247 147.09 91.3973 147.682 89.4247C148.405 86.9918 148.537 87.6493 148.537 84.6904C148.537 83.0466 148.405 80.811 148.603 79.2329L153.863 79.1671L153.995 67.463H148.668C148.405 66.2137 148.34 30.2466 148.668 28.9973L153.863 28.8658C154.192 27.4192 154.06 19.2658 153.929 17.2274L148.668 17.1616C148.405 15.7151 148.603 11.8356 148.537 9.86301C148.471 8.48219 148.34 8.81096 148.011 7.69315C147.353 5.06301 145.973 3.35342 143.737 1.8411C140.975 0 139.66 0 135.518 0H18.2137C16.0438 0 15.3863 0.0657534 13.4795 0.394521C12.6904 0.526027 12.2301 0.657534 11.6384 0.986301C10.1918 1.77534 8.15342 3.28767 7.49589 4.53699ZM16.4384 84.8877C26.4986 85.1507 36.8219 84.8877 46.8822 84.8877L135.978 84.9534C136.701 84.9534 137.359 85.0849 137.293 84.4274C137.753 84.1644 137.688 85.2822 137.688 82.2575V19.989C137.688 18.411 138.082 11.9671 137.293 11.1781C136.57 10.5205 58.5205 10.9151 46.6849 10.9151C41.6877 10.9151 36.6247 10.9151 31.6274 10.9151C26.6959 10.9151 21.3041 10.7178 16.4384 10.9808C15.7808 12.0329 16.2411 43.5945 16.2411 47.8027C16.2411 54.0493 16.1753 60.2959 16.1753 66.5425C16.2411 70.1589 15.7151 82.5206 16.4384 84.8877ZM79.9562 42.2137L80.0219 43.0685C78.8384 43.989 79.2986 44.2521 79.2986 47.4082C79.2986 48.4603 79.1671 48.9863 79.6274 49.7096C80.0219 50.3671 80.4822 50.4986 80.4164 51.4192C81.337 51.6164 81.2055 53.5233 81.2055 54.3781C81.2055 55.5616 81.2055 56.7452 81.2055 57.9288C81.1397 61.611 80.8767 77.2603 81.6 78.8384C83.5726 79.2986 91.7918 79.0356 94.2904 79.0356C96.6575 78.9699 98.1699 78.7068 100.142 78.4438C102.312 78.2466 103.299 77.6548 104.088 75.9452C104.942 74.3014 104.416 61.7425 104.679 57.2712C104.811 55.5616 104.351 54.0493 104.482 52.6027C104.614 51.6822 104.548 51.8137 105.14 51.4849C104.811 49.4466 105.008 49.5781 103.101 47.2767C101.984 45.8959 101.195 46.4877 102.707 45.1068C103.759 44.1205 104.351 42.8712 104.416 41.2274L104.482 26.3671C104.482 25.1178 104.482 23.8685 104.482 22.6849C104.416 19.8575 104.088 19.9233 104.088 19.1342C103.43 18.5425 103.299 18.0164 102.444 17.6877C101.523 17.2931 100.471 17.3589 99.4849 17.4247H87.0575C85.5452 17.4247 82.389 16.8986 81.337 17.6877C80.811 18.8712 81.074 27.8795 81.1397 29.8521V39.189C81.2055 40.7014 81.7973 39.6493 81.6 41.4247C80.811 41.9507 80.8767 41.8849 79.9562 42.2137ZM53.063 78.9041C54.6411 78.8384 56.8767 79.2329 59.0466 79.0356C61.0192 78.8384 62.663 78.5753 65.0301 78.7068C66.7397 78.7726 68.7781 79.4959 70.8822 78.9699C70.8822 78.9699 72.1315 78.6411 72.1973 78.6411C72.7233 78.3781 72.263 78.6411 72.6575 78.3123C72.7233 78.3123 72.7233 78.2466 72.789 78.2466L72.9863 78.0493C73.0521 78.0493 73.1178 77.9836 73.1178 77.9836C73.5781 77.6548 74.4329 77.063 74.6959 76.4712C75.0247 73.6438 75.4849 75.0904 75.5507 69.6329L75.4849 33.2055C75.4849 28.537 75.748 23.2767 75.4192 18.674C74.0384 18.1479 69.5014 17.7534 68.0548 18.2795C65.9507 18.937 66.4767 21.2384 66.4767 24.7233C66.4767 27.4192 66.937 29.5233 66.937 32.3507C67.0027 40.5041 66.4767 48.3288 66.5425 56.0219C66.6082 58.7178 66.5425 61.4137 66.4767 64.1096C66.3452 67.2658 66.8712 68.9096 65.2274 70.6192L59.5726 70.5534C58.6521 69.3041 58.7178 69.5671 58.7178 67.3973C58.7178 66.0164 58.7178 64.6356 58.7836 63.2548C58.7836 59.8356 59.7041 52.3397 59.7041 48.1973C59.7041 45.4356 59.5068 43.0685 59.4411 40.3726C59.3753 37.9397 59.2438 35.1781 59.0466 32.7452C58.8493 31.3644 58.7178 30.5753 58.7178 29.063L58.6521 21.0411C58.6521 19.3973 58.9151 18.8712 57.7973 17.9507C56.811 17.0959 51.5507 17.0959 50.4329 17.3589C49.5781 18.0822 49.9726 23.1452 49.9726 25.1178L49.9068 49.4466C49.9068 53.9836 49.6438 69.8301 49.9726 73.7753C50.3671 78.5096 52.2082 77.7206 53.063 78.9041ZM133.414 41.8192C131.573 41.6877 123.682 41.4247 122.893 42.411C122.367 42.8712 122.367 48.7233 122.696 49.4466C123.156 50.3671 122.893 49.5781 123.682 50.1699C125.26 51.4192 124.603 57.7315 124.537 59.3096C124.537 61.5452 124.866 63.3205 124.8 65.3589C124.8 66.8712 124.866 67.0685 125.129 68.2521C125.326 69.5671 124.866 69.8301 124.405 70.4877C122.63 70.6849 120.46 70.6192 118.816 70.2904L118.882 58.7178C118.882 54.9041 118.882 51.0247 118.882 47.211L118.685 30.0493C118.685 28.3397 118.093 26.3671 118.816 25.1836H124.8C125.589 26.0384 125.589 26.8274 125.589 28.2082V31.1014C125.786 32.4822 125.392 30.1151 125.721 31.4959L125.852 31.8247C126.575 32.2849 128.088 31.8904 129.14 31.8904C131.901 32.0219 132.559 32.3507 133.085 31.1014C133.414 30.3123 133.282 24.9205 133.282 23.8685C133.282 21.9616 133.677 19.463 132.427 18.3452C132.296 18.2137 132.099 18.0164 131.901 17.8192L131.638 17.6219C131.638 17.6219 131.573 17.5562 131.507 17.5562C131.507 17.4904 131.375 17.4904 131.375 17.4247C131.375 17.3589 131.244 17.3589 131.244 17.2931C130.455 17.3589 128.811 16.8329 127.299 16.8329C125.786 16.8329 124.274 16.8986 122.762 16.8986C118.29 16.9644 112.833 15.7808 110.071 19.0685C109.94 19.2 109.611 19.5945 109.545 19.726C108.822 21.5014 108.822 31.9562 109.282 35.1123L109.479 48.8548C109.414 50.3014 109.151 51.1562 109.151 52.9315C109.085 57.4685 108.953 67.726 109.151 71.5397L109.611 75.6164C109.808 76.4712 110.926 77.589 111.715 78.0493C113.162 78.9699 112.767 79.0356 115.529 79.0356C117.37 79.0356 127.956 79.1671 129.271 78.9041C130.652 78.5753 131.441 78.2466 132.427 77.2603C134.269 75.4192 133.677 72.4603 133.677 69.2384C133.611 61.7425 134.203 47.737 133.414 41.8192ZM21.4356 77.326L21.6329 77.5233L21.7644 77.6548L23.1452 78.5753C25.1836 78.7726 28.4712 79.6274 30.1808 77.9178C31.5616 76.6027 30.9041 72.263 30.9041 70.0931C30.9041 67.3315 30.9041 64.5699 30.8384 61.8082C30.8384 60.1644 30.5753 59.4411 30.4438 58.126C30.4438 57.4685 30.3781 56.7452 30.5753 56.1534C30.9041 54.6411 31.2329 54.8384 31.4959 54.7068C32.0219 52.4712 40.4384 55.0356 43.5288 53.063C43.7918 52.8657 43.7918 52.8658 44.1206 52.6027L45.1069 51.6164C45.3041 50.1699 45.6986 50.2356 45.7644 48.4603L45.8301 37.0849C45.7644 32.0877 45.9616 27.0247 45.7644 22.0274C45.7644 20.4493 45.6329 20.1863 45.1069 19.1342C43.7918 16.4384 39.3863 17.2931 35.5726 17.2931L24.3945 17.2274C22.9479 17.2274 21.9616 17.0301 21.3041 18.0822C20.6466 19.1342 21.0411 30.4438 21.0411 32.7452C20.9753 37.7425 20.8438 42.4767 20.7781 47.6055C20.7123 52.7342 20.9753 57.4685 21.0411 62.4658C21.1068 65.6877 20.6466 74.9589 21.4356 77.326ZM30.9699 25.9726L30.7726 44.3836C31.2329 44.7123 36.4931 46.3562 36.3616 42.8712C36.2959 41.7534 36.0329 40.7014 36.0329 39.1233C35.9671 37.4137 36.0986 27.4849 35.9014 26.6959C35.3753 24.9863 34.1918 25.0521 32.6795 25.1836C31.2986 25.2493 31.9562 25.4466 30.9699 25.9726ZM90.4767 70.6849C91.463 70.7507 93.3041 71.0795 94.8822 70.8164C95.3425 70.1589 95.3425 70.0932 95.3425 68.9753C95.2767 67.0027 95.6712 65.1616 95.5397 63.2548C95.2767 60.1644 95.5397 52.9315 95.4082 52.1425C95.1452 49.9726 93.4356 50.6959 92.8438 50.6959C92.0548 50.6959 92.3836 50.5644 91.5945 50.5644C89.8849 50.5644 89.9507 52.8657 89.9507 54.3781V65.5562C89.9507 66.674 89.4247 68.9753 89.6219 69.6986C89.8192 70.7507 89.8849 70.4219 90.4767 70.6849ZM95.3425 25.9726C94.7507 25.6438 94.3562 25.4466 93.5014 25.4466C91.2658 25.4466 90.2794 25.3151 90.2794 27.6164C90.2794 29.3918 90.1479 31.1671 90.1479 33.0082C90.1479 34.9808 89.8192 33.9945 89.6219 35.1123C89.4247 36.2301 90.0822 35.9671 90.2137 37.0849C90.4767 38.663 89.6877 40.8329 90.8712 41.7534C91.9891 42.5425 94.0931 43.1342 94.8822 41.8192C95.4082 41.0301 95.4082 27.2877 95.3425 25.9726ZM21.4356 77.326C20.6466 74.9589 21.1068 65.6877 21.0411 62.4658C20.9753 57.4685 20.7123 52.7342 20.7781 47.6055C20.8438 42.4767 20.9753 37.7425 21.0411 32.7452C21.0411 30.4438 20.6466 19.1342 21.3041 18.0822C21.9616 17.0301 22.9479 17.2274 24.3945 17.2274L35.5726 17.2931C39.3863 17.2931 43.7918 16.4384 45.1069 19.1342C45.6329 20.1863 45.7644 20.4493 45.7644 22.0274C45.9616 27.0247 45.7644 32.0877 45.8301 37.0849L45.7644 48.4603C45.6986 50.2356 45.3041 50.1699 45.1069 51.6164C45.3699 51.4849 45.8301 51.4849 46.0932 50.4329C46.8822 47.1452 46.5534 20.9753 46.0932 19.463L45.3041 18.2795C43.2 15.9781 38.3342 16.5041 35.3753 16.5041L23.6055 16.3726C19.2657 16.6356 20.4493 20.5151 20.5151 25.1178C20.5808 27.7479 20.5151 30.3781 20.5151 32.9425C20.5151 35.3753 20.1863 37.7425 20.1863 40.1753V56.0219C20.7123 63.8466 20.4493 63.8466 20.4493 71.0795C20.4493 71.9342 20.4493 72.1973 20.252 72.8548C20.0548 73.4466 19.9233 73.5123 20.1206 74.4329C20.2521 75.2219 20.3178 75.2219 20.4493 76.274C20.5151 77.1288 20.5808 77.1945 21.4356 77.326ZM79.9562 42.2137C80.8767 41.8849 80.811 41.9507 81.6 41.4247C81.7973 39.6493 81.2055 40.7014 81.1397 39.189V29.8521C81.074 27.8795 80.811 18.8712 81.337 17.6877C82.389 16.8986 85.5452 17.4247 87.0575 17.4247H99.4849C100.471 17.3589 101.523 17.2931 102.444 17.6877C103.299 18.0164 103.43 18.5425 104.088 19.1342C104.219 16.9644 101.786 16.7014 99.6822 16.8329L86.2685 16.9644C83.6384 16.7671 83.3753 15.7808 80.6137 17.0959C80.4822 21.0411 80.2192 25.0521 80.4164 29.063C80.6137 32.5479 80.6795 34.5205 80.6137 38.137C80.4822 41.0959 80.6137 39.4521 80.9425 40.7671C80.4164 41.2274 79.9562 41.2931 79.9562 42.2137ZM23.1452 78.5753L23.2767 79.4301C24.7233 79.4301 26.1041 79.4301 27.5507 79.4959C28.8 79.4959 29.8521 79.4959 30.7069 78.4438C32.1534 76.6685 31.7589 73.7096 31.4959 71.211C31.2329 68.7123 31.6932 65.6219 31.6274 62.8603C31.5616 61.4137 31.2986 60.2959 31.2329 58.9151C31.1014 57.1397 31.5616 56.0219 31.4959 54.7068C31.2329 54.8384 30.9041 54.6411 30.5753 56.1534C30.3781 56.7452 30.4438 57.4685 30.4438 58.126C30.5753 59.4411 30.8384 60.1644 30.8384 61.8082C30.9041 64.5699 30.9041 67.3315 30.9041 70.0931C30.9041 72.263 31.5616 76.6027 30.1808 77.9178C28.4712 79.6274 25.1836 78.7726 23.1452 78.5753Z" fill="#FFCC00"/>
</svg>
