<svg width="100" height="96" viewBox="0 0 100 96" fill="none" xmlns="http://www.w3.org/2000/svg">
    <path fill-rule="evenodd" clip-rule="evenodd" d="M0.842138 3.06652C0.513371 6.02542 0.381864 5.76241 1.30241 7.40624C2.35447 9.31309 0.776385 14.3761 0.250358 16.3487C-0.341423 18.9131 0.250358 23.2528 0.644878 25.883C0.907892 27.5925 0.776385 29.0391 1.0394 30.8145C1.23666 32.3268 1.82844 33.5761 2.22296 35.0227C2.55173 36.3377 2.09145 36.1405 2.15721 37.2583C2.15721 38.0473 2.28871 38.7706 2.28871 39.9542C2.94625 40.546 4.12981 41.598 4.45858 42.5186C4.72159 43.2419 5.37912 45.9378 4.52433 46.2008L5.05036 49.6199L1.43392 50.935C1.43392 52.6446 1.63118 53.6967 1.63118 55.0775C1.69693 55.8008 1.63118 56.5898 1.63118 57.3131C1.69693 58.3651 1.82844 58.3651 1.89419 59.2857C2.74899 59.746 3.34077 60.3377 4.19556 60.798L3.73529 63.7569C3.53803 65.072 3.40652 66.1241 3.20926 67.3076C3.07775 68.5569 2.74899 69.8062 2.74899 71.1213C2.09145 71.2528 1.89419 71.4501 1.43392 71.7788L0.907892 86.3103C0.776385 87.0336 0.513371 90.3871 0.973645 91.1104C3.9983 90.9788 6.49693 92.8199 8.33803 92.6884C9.6531 91.8994 8.53529 91.8336 10.7709 91.8336C11.7572 91.8336 13.2038 91.4391 13.8613 91.5706C15.3079 91.7021 13.7956 92.0309 16.5572 91.7679C18.201 91.6364 18.1353 91.7021 19.6476 91.2419C19.8449 91.4391 19.5819 91.1103 19.9764 91.6364C20.1079 91.8994 20.1736 91.9651 20.3052 92.2282C23.3956 90.7158 23.6586 91.3734 24.7764 91.9651C25.4339 92.2939 26.749 92.2281 27.538 92.2939C28.3271 92.3597 28.8531 92.4912 29.3791 91.9651L29.5764 91.7021C29.5764 91.6364 29.6421 91.5706 29.6421 91.5706C31.2202 92.4254 30.6942 92.0966 32.338 91.3076C33.8504 92.1624 33.0613 92.6227 35.3627 92.1624C36.7435 91.8336 38.4531 92.0309 39.8997 91.8994C40.2942 92.8199 42.0038 95.1213 42.7271 95.9103L42.9901 93.9377H47.4613C48.0531 94.0692 47.7243 94.661 48.1188 95.2528L51.012 94.3323C51.8668 94.9898 51.8668 95.3843 52.7873 95.8446C57.0613 93.872 54.3654 93.2802 63.6367 93.2802C65.149 93.2802 72.0531 93.7405 72.9736 93.4775C74.0257 93.1487 74.1572 93.0172 74.8147 92.4254L75.2093 92.1624C75.9983 92.4254 77.7736 93.6747 78.2997 93.6747C79.9435 93.6747 79.2202 92.3597 81.8504 93.346C84.349 94.2665 87.3079 93.609 89.8723 92.8199C89.4778 92.3597 89.0175 92.0966 88.623 91.6364C91.7791 90.5186 96.5134 92.4912 99.4723 92.8857V56.5898L96.0531 57.1158C96.0531 55.472 96.1189 55.9323 96.9736 55.0775C97.6969 54.4199 97.7627 54.0912 98.0915 53.1049C97.3024 50.935 99.2093 46.7268 97.1709 40.6775C96.3161 37.9158 96.7764 39.4282 95.6586 37.4556C94.8038 36.6665 95.2641 35.3514 95.4613 34.3651L96.9736 33.5104C96.9079 32.5241 96.4476 32.3925 96.1189 31.4062C96.9736 31.0775 97.9599 30.4857 98.5517 29.8939C99.275 28.7761 99.3408 12.798 99.2093 9.51035C99.2093 8.19528 98.749 7.66926 98.6832 6.6172C98.6175 5.43364 99.275 4.97337 98.8147 3.59254C97.7627 3.6583 97.2367 3.00076 95.9874 2.73775L86.7819 1.22542C86.2558 1.8172 85.8613 2.40898 85.401 3.06652C85.0723 2.47474 84.875 1.61994 84.7435 0.8309L65.8723 0.567886L65.3462 3.72405L60.6778 4.25008L60.0202 2.27748L56.1408 1.68569C56.5353 0.962407 56.9956 0.699393 57.3901 0.0418586C55.7463 -0.0896483 41.149 0.107612 40.4257 0.370626C40.0969 0.436379 38.1901 1.88295 37.8613 2.14597C37.6641 2.34323 37.4668 2.54049 37.2695 2.73775C36.875 3.06652 37.0723 3.00076 36.5462 3.13227L26.0915 3.39528L26.6832 2.27748L1.0394 1.75145L0.842138 3.06652ZM13.138 20.5569C14.2558 21.1487 64.5572 71.9104 70.2778 77.6309C71.1983 78.4857 71.9873 78.2227 73.6969 78.2227C76.3271 78.2227 79.023 78.2227 81.7188 78.2227L87.6367 63.3624L88.7545 60.4035L36.6778 24.7651C35.0997 23.7131 33.5216 22.5295 31.8778 21.4775L22.4093 15.0336C20.7654 13.8501 20.5682 14.4419 16.6887 15.6912C15.0449 16.283 12.2175 17.0062 10.7709 17.7295C10.7709 17.7953 10.7709 17.7953 10.8367 17.9268C10.9024 18.5186 12.5462 19.5706 13.138 20.5569ZM11.0997 71.9104C11.9545 72.3706 15.7024 76.3158 16.8202 77.4994C17.8065 78.5515 18.201 78.2227 20.1079 78.2227C25.8942 78.1569 26.8805 77.6309 32.8641 75.461C33.7188 75.198 34.7052 74.935 35.3627 74.6062L14.1243 53.4336C13.5983 54.8145 11.4942 66.4528 10.7709 69.8062C10.5079 71.1213 10.5736 71.0556 11.0997 71.9104ZM59.6915 19.7679L78.1024 31.9323C78.1682 30.3542 78.2997 18.5843 78.0367 17.861C77.8394 17.335 71.9216 11.6802 71.001 10.6939L56.9298 17.6638L59.6915 19.7679Z" fill="#FFCC00"/>
</svg>
