<svg width="96" height="96" viewBox="0 0 96 96" fill="none" xmlns="http://www.w3.org/2000/svg">
    <path fill-rule="evenodd" clip-rule="evenodd" d="M70.6192 32.4821C70.7507 33.4684 71.1452 33.2712 71.211 34.3232C70.7507 34.7177 70.4877 34.915 69.6986 34.915C68.9096 33.7314 68.1205 32.6136 67.463 30.904C67.1342 30.115 66.8055 29.326 66.5425 28.6027C66.1479 27.2218 66.2137 26.6958 65.5562 26.4986L65.4904 29.326C65.0959 31.167 62.2027 28.4712 60.9534 29.4575L58.8493 31.8903C57.9288 32.8766 58.2575 33.1397 55.7589 33.1397C54.2466 33.2054 54.9041 33.3369 53.6548 33.7972C51.3534 34.5205 50.8932 33.7314 48.9863 33.9287C48.3945 35.441 48.7233 36.7561 48.7233 38.4657C48.7233 40.241 47.8027 40.1753 46.4877 40.9643L46.5534 44.1862C47.6055 44.3835 48.1315 43.8575 48.9863 44.7123L52.8 49.315C53.7863 50.2355 54.5096 51.4191 55.4301 52.4712C55.8904 52.9972 56.3507 53.4575 56.0877 54.4438C55.6274 55.8246 53.8521 55.167 55.4959 57.0739L60.2959 64.0438C61.4795 65.9506 60.6904 67.5287 61.2164 69.7643C61.6767 71.7369 62.2685 73.3807 62.2685 75.6164C62.2027 77.2602 62.0055 80.3506 62.663 81.7314C63.7808 83.967 66.2137 86.0054 65.9507 88.6355C65.7534 90.5424 62.7288 91.7917 59.3096 89.5561C58.5206 89.0301 58.0603 88.6355 57.4685 88.1095C53.9836 85.0849 55.1014 87.0575 54.6411 80.8109C54.5096 78.115 52.6685 74.0383 51.8137 70.1588C51.0904 66.8712 51.5507 67.5944 49.6438 65.6876C47.6712 63.715 46.8164 62.3999 45.1068 60.0986C43.6603 58.1917 43.463 58.126 42.0822 56.4821C41.3589 55.6931 41.4246 55.3643 39.8466 55.2328C39.7808 56.4821 39.9781 56.3506 39.3863 57.3369C38.0712 59.3753 36.3616 63.6492 35.5726 65.9506C35.0466 67.3314 34.9808 69.1068 34.6521 70.0931C34.4548 70.5533 33.9945 71.2109 33.6658 71.7369L31.2329 76.7999C30.5753 78.0492 30.3123 79.3643 28.9315 79.5616C27.6164 79.7588 25.5123 79.3643 24.5918 80.0876C24.1973 81.2054 25.7096 82.389 25.4466 83.7698C25.1836 84.7561 23.6055 85.2164 22.4877 85.6109C20.7781 86.1369 20.3836 86.2684 19.3315 84.9534C18.6082 84.0328 17.9507 83.3095 17.2931 82.389C16.8329 81.7314 16.8986 81.3369 16.7671 80.4821C16.4384 78.5095 14.7945 78.378 16.9644 75.4191C18.674 73.052 19.0685 72.0657 21.3041 70.3561C24.7891 67.6602 24.0657 69.8958 25.052 64.6355C25.5123 62.1369 26.1041 59.5068 26.9589 57.2712C27.8137 55.0355 28.537 52.4712 29.1945 50.1698C29.7206 48.526 30.1151 47.9342 29.1945 46.4218C27.748 44.1205 28.6685 44.9095 29.1945 43.1342L28.3397 42.6081C28.9315 41.5561 30.5754 36.8218 30.5096 35.3753C30.3781 33.1396 30.9698 33.4027 31.2986 31.5616C31.4959 30.3123 31.8247 28.5369 31.8247 27.2876C31.6932 23.5396 32.0219 23.8027 33.6658 21.9616C36.0986 19.3314 35.4411 18.4766 39.2548 15.7807L39.3205 14.2684C39.452 12.6246 39.0575 10.0602 42.0165 8.0876C45.8302 5.52321 51.7479 7.36431 52.6685 12.8218C53.063 15.189 52.7342 14.8602 51.6822 16.1095C50.4329 17.6218 52.274 18.4766 52.6027 18.4766L54.7726 16.5698C55.8904 15.3862 56.3507 15.7807 57.6 16.3725C58.7178 15.7807 58.1918 14.9917 60.1644 15.1232C60.1644 17.0301 60.5589 17.6218 62.5973 17.6876C64.0438 17.6876 66.0164 17.7534 67.463 17.6876L68.7123 15.7807L70.0931 15.8465L70.2246 17.7534L72.789 17.8191L73.5781 16.6355L74.6301 16.7013L74.8274 17.4246C74.8931 17.5561 74.8932 17.8191 74.8932 18.0821C77.6548 18.2794 77.3918 15.9123 78.7726 16.767C79.1671 16.9643 79.1014 17.6218 79.1671 18.2794C80.2192 18.2794 79.6932 18.3451 79.8904 18.5424L79.9561 19.6602C79.4301 20.1205 79.7589 19.726 79.1671 19.989C80.548 21.041 82.1918 19.989 81.4027 22.1588C80.4164 22.5534 74.9589 22.2903 73.3808 22.2903C73.1835 22.9479 71.2767 25.315 70.4877 25.7753C69.7644 26.1698 69.3041 25.841 68.7123 25.7753C68.5808 27.8136 69.3041 31.4958 70.6192 32.4821ZM15.2548 0.262939H8.21918C6.96986 0.394446 5.85206 0.723213 4.73425 1.38075C1.38083 3.35335 0.328767 5.91773 0 8.94239V16.8328V85.2821C0.0657534 87.0575 0.0657614 88.1753 0.131515 88.3725C0.920556 92.1862 4.47125 95.5397 8.48221 95.7369H83.4411C86.2685 95.6712 88.0438 95.6712 88.2411 95.6054C91.1343 94.9479 93.6986 92.8438 94.8164 90.1479C95.211 89.1616 95.4082 87.978 95.474 86.5972V78.7725C95.474 68.1205 95.474 57.5342 95.474 46.8821V10.9807C95.474 9.00815 95.4082 7.75883 95.3425 7.49582C94.6849 4.60267 92.5808 2.03828 89.9507 0.986227C89.0959 0.591707 88.3069 0.328693 87.0575 0.262939H15.2548ZM49.9726 26.104C52.8 26.104 51.8137 24.8547 53.7206 24.7232C55.2986 24.6575 56.6795 24.4602 56.8767 23.0136C55.8247 22.4876 52.4712 22.3561 51.4849 23.0136L49.9069 24.3944C49.3808 24.789 48.789 26.104 49.9726 26.104Z" fill="#FFCC00"/>
</svg>
