<svg width="142" height="145" viewBox="0 0 142 145" fill="none" xmlns="http://www.w3.org/2000/svg">
    <path fill-rule="evenodd" clip-rule="evenodd" d="M53.577 128.758H66.0767C66.0767 131.803 67.2445 134.699 68.8793 137.148C69.1222 137.511 69.3558 137.79 69.552 138.154H50.1017C52.1103 135.174 53.577 132.725 53.577 128.758V128.758ZM56.6505 116.205C56.6505 119.027 60.0884 120.377 62.0409 118.505C64.0588 116.559 62.7323 113.039 59.8269 113.039C58.1266 113.039 56.6505 114.501 56.6505 116.205ZM126.006 96.7149C126.006 99.3316 126.763 100.496 127.893 102.749C128.566 104.109 131.798 109.566 132.359 109.975C132.434 109.677 133.368 108.364 133.686 107.834C134.592 106.362 135.489 105.049 136.32 103.448C138.114 100.021 140.15 96.3145 136.796 92.9901C136.273 92.4686 135.797 92.0589 135.096 91.7051C132.677 90.4945 129.949 91.0718 127.921 92.7946C127.062 93.5116 126.006 95.4857 126.006 96.7149ZM51.1947 34.2218L59.6307 21.0639C60.1725 21.427 60.6303 22.1068 60.9946 22.4793L67.2445 29.1002C67.5154 29.3702 67.7303 29.5658 67.9919 29.8358L80.4916 43.1893C80.9774 43.6083 81.6874 44.0087 82.5469 44.0087H113.404V59.6344H73.6158C73.2701 59.6344 71.8034 57.7254 71.4578 57.3343C71.3363 57.1946 71.2429 57.1294 71.1121 56.9897L57.5193 41.4572C56.2675 40.1256 54.4178 37.7976 53.3061 36.6615C53.0071 36.3636 52.8857 36.1587 52.6147 35.87L51.1947 34.2218V34.2218ZM141.776 40.8333V40.8613C141.776 41.6621 141.318 42.6119 140.916 43.0496C139.674 44.3812 137.656 44.0087 135.432 44.0087V84.8514H129.08V44.0087H119.756V62.4C119.756 63.6106 119.486 64.1973 118.962 64.877C118.607 65.352 117.692 65.9666 116.879 65.9666H71.8315C70.6917 65.9666 69.935 65.2961 69.4118 64.6163C68.4403 63.3685 65.6096 60.4538 64.6287 59.1967L61.9849 56.1982C61.798 55.984 61.7887 55.9189 61.5925 55.7047L52.9604 45.9084C52.7549 45.6849 52.7362 45.6011 52.512 45.3683L47.3178 39.4738C47.1309 39.2503 47.1309 39.213 46.9067 38.9895C46.6732 38.7474 46.6451 38.7009 46.4489 38.4588L45.1878 37.0433C44.5992 36.2891 44.0574 35.8328 44.0574 34.5105C44.0574 33.2999 45.1878 31.9683 45.8978 30.8136C48.1305 27.1632 50.8491 23.2242 53.0445 19.6391L55.1651 16.3147L45.5708 6.00627C44.758 5.19612 44.0574 4.58153 44.0574 3.06366C44.0574 2.12315 44.6086 1.35025 45.1224 0.866021C45.6736 0.335234 46.3836 0 47.4299 0H100.605C102.38 0 102.997 0.949829 103.903 1.8531C104.79 2.73774 105.603 3.54789 106.481 4.42322L139.87 37.7045C140.673 38.5053 141.776 39.3062 141.776 40.8333V40.8333ZM54.5672 6.33219H98.3257C99.0637 6.32288 99.3439 6.19251 99.7457 6.59293L117.402 24.202C119.672 26.4742 121.868 28.6625 124.147 30.9253C124.68 31.4561 130.575 37.2482 130.864 37.6765L84.6208 37.6859C83.808 37.6859 84.0416 37.6207 83.07 36.6615C82.9205 36.5219 82.8084 36.4287 82.6776 36.2611C82.4908 36.0469 82.4908 35.9911 82.2759 35.7769L72.5041 25.4405C72.1771 25.1146 72.0463 24.8818 71.71 24.5466L67.6275 20.2165C67.3659 19.8719 67.095 19.6577 66.7961 19.3597L65.1612 17.6277C64.8249 17.2925 64.6847 17.0504 64.3671 16.7338C62.1997 14.5547 59.9203 11.8915 57.8183 9.8149C57.6688 9.66591 57.5567 9.57279 57.4259 9.41448L54.5672 6.33219V6.33219ZM81.9583 144.486H37.6861C36.5463 144.476 35.6682 143.75 35.1824 143.042C34.6032 142.204 34.5284 140.984 34.9675 139.979C35.8643 137.902 38.1532 138.219 39.0126 138.07C41.5257 137.641 43.6743 136.552 45.1878 134.54C46.2714 133.097 47.2243 131.225 47.2243 128.758H7.64185C4.94198 128.758 1.82171 126.513 0.766048 124.046C0.401706 123.189 0 122.118 0 120.945V42.4257C0 41.1313 0.457772 39.9301 0.896851 39.064C1.75632 37.332 3.42855 35.8141 5.27829 35.1157C6.29658 34.7339 7.44567 34.5105 8.83764 34.5105H37.602C38.2372 34.5105 37.4712 36.2425 38.7324 38.9337C39.704 41.0196 40.5541 40.9637 38.9005 40.9451C29.4744 40.8426 19.525 40.9451 10.0241 40.9451C9.20198 40.9451 7.99685 40.7868 7.40829 41.1034C6.85711 41.4014 6.35263 41.9322 6.35263 42.7237V103.643H113.404V72.1963H119.458C119.682 72.1963 119.756 72.2615 119.756 72.4943V119.958C119.756 122.77 118.682 125.396 116.58 126.979C113.721 129.149 111.806 128.758 108.247 128.758H77.689C71.7007 128.758 72.4574 128.357 72.5321 129.745C72.7003 132.948 75.4095 136.394 78.6699 137.576C79.3425 137.818 79.8844 137.949 80.7438 138.079C81.4538 138.181 82.3413 138.107 82.9486 138.349C86.4145 139.746 85.1533 144.476 81.9583 144.486V144.486ZM111.517 122.435H8.13698C7.22146 122.435 6.35263 121.559 6.35263 120.656V109.975H113.404V119.865C113.404 120.638 113.31 121.14 112.993 121.625C112.713 122.044 112.199 122.435 111.517 122.435V122.435Z" fill="#FFCC00"/>
</svg>
