<svg width="135" height="138" viewBox="0 0 135 138" fill="none" xmlns="http://www.w3.org/2000/svg">
    <path fill-rule="evenodd" clip-rule="evenodd" d="M23.6033 126.459C23.1923 126.245 20.838 123.777 20.3055 123.246C19.2032 122.147 10.8794 113.971 10.6552 113.543L23.6126 113.534L23.6033 126.459ZM16.6528 21.0371C12.7478 21.8007 13.4017 27.9932 18.5492 27.0247C20.1094 26.7361 21.492 25.0878 20.8848 23.1509C20.3896 21.5586 18.8108 20.618 16.6528 21.0371ZM46.5755 57.531C44.8846 57.7638 43.4272 59.44 44.0251 61.4421C44.2774 62.2522 44.894 62.9413 45.5666 63.2859C46.2859 63.6583 47.6499 63.6863 48.5467 63.5838C52.2649 63.1927 52.6105 56.7022 46.5755 57.531ZM16.6715 57.5589C14.5788 57.9314 13.3457 60.2874 14.6816 62.3081C15.8587 64.096 18.6333 63.6025 21.2491 63.6025C22.4355 63.6025 36.1124 63.6956 36.8878 63.5652C38.9057 63.2207 40.2603 60.7343 38.8683 58.7974C38.3451 58.0804 37.5324 57.5217 36.2712 57.5031C34.4962 57.4658 17.5029 57.4099 16.6715 57.5589ZM29.4328 21.0464C26.7796 21.6051 26.3779 24.585 27.6765 26.0004C28.4612 26.8478 29.0311 27.0899 30.5445 27.0899H78.9833C80.0109 27.0899 82.0755 27.2017 82.963 27.0247C86.2421 26.3822 86.6438 20.9719 81.8513 20.9905H33.4032C32.4409 20.9905 30.2455 20.8788 29.4328 21.0464ZM16.7182 45.3881C13.7194 45.9375 13.2803 49.6437 15.6158 51.0033C16.7649 51.6644 18.5679 51.4316 20.0346 51.4316H78.1145C79.357 51.4316 81.8326 51.5713 82.9256 51.3851C85.7376 50.9008 86.2514 47.1015 83.9159 45.742C82.8322 45.118 80.9077 45.3322 79.5064 45.3322C60.1496 45.3322 40.7834 45.3322 21.4266 45.3322C20.2495 45.3322 17.7084 45.2019 16.7182 45.3881ZM16.4379 33.2731C13.5605 34.0646 13.3924 37.7708 15.8213 38.9442C16.905 39.4563 18.9603 39.2515 20.2962 39.2515C39.653 39.2515 59.0192 39.2515 78.376 39.2515C79.4317 39.2515 82.3371 39.3725 83.1592 39.1583C85.9058 38.4227 86.2141 34.6885 83.7291 33.4687C82.5239 32.882 76.2367 33.1521 74.387 33.1521C56.6463 33.1521 38.9057 33.1521 21.165 33.1521C20.044 33.1521 17.3348 33.031 16.4379 33.2731ZM64.6058 106.075C66.278 106.931 69.09 108.654 70.9491 109.725C71.3041 109.93 71.6124 110.023 71.7992 110.302C71.0051 110.638 64.6432 115.107 64.0079 115.331L64.6058 106.075ZM6.24568 6.4358L93.3141 6.45442C93.4542 16.558 93.3141 26.7826 93.3141 36.9048C93.3141 40.3689 93.6971 39.8102 92.5106 41.8216C92.2584 42.2499 92.0529 42.6038 91.81 43.0228C90.8477 44.6431 89.9509 46.2169 89.0073 47.8465C88.3814 48.936 83.8692 56.5905 83.4395 57.4938C76.3768 57.5869 69.0059 57.5031 61.8779 57.5031C59.3088 57.5031 57.4497 57.1865 56.3941 59.1327C55.3011 61.1627 56.7491 63.202 58.4961 63.5466C59.2528 63.6956 71.6497 63.6025 72.7334 63.6025C74.9008 63.6025 77.7501 63.4442 79.8334 63.6211C79.6746 64.0867 76.7692 68.9196 76.3675 69.6832C71.1266 69.795 65.7455 69.6832 60.4953 69.6832H20.7259C18.0167 69.6832 15.5224 69.199 14.4667 71.3315C13.327 73.6315 15.0646 75.764 17.3441 75.7826C19.9692 75.8106 22.613 75.7826 25.2475 75.7826H64.9234C67.4178 75.7826 70.3418 75.6429 72.8082 75.8106L69.3703 81.8354C67.1282 81.9658 64.5124 81.8541 62.2329 81.8541C48.1076 81.8541 33.9824 81.8541 19.8571 81.8541C17.2974 81.8541 15.4944 81.5747 14.4948 83.4651C13.4578 85.4392 14.747 87.4599 16.4659 87.8697C17.5403 88.1304 21.9871 87.9535 23.4258 87.9535C25.6866 87.9535 64.9141 87.851 65.7455 87.9814C63.7089 91.6503 61.3921 95.4497 59.2995 99.1372C58.795 100.031 58.7763 100.283 58.7109 101.465L57.5432 120.825C57.431 122.669 58.3839 123.954 59.8974 124.28C60.9624 124.513 64.3722 124.354 65.6988 124.354C67.9409 124.354 82.3464 124.466 83.2713 124.317C86.8026 123.721 86.6438 118.292 82.636 118.255C78.7964 118.208 74.6859 118.422 70.8837 118.236C71.192 117.892 78.0864 113.459 78.6656 113.068C79.385 112.593 79.9175 112.286 80.3566 111.55C81.7766 109.138 92.8937 89.6948 93.3141 89.2665L93.2954 130.854H29.7691C29.6383 129.075 29.7504 126.813 29.7504 124.987V113.217C29.7504 111.178 30.068 109.557 28.8442 108.328C27.6111 107.09 25.9108 107.416 23.8555 107.416H12.0471C10.1694 107.416 8.10476 107.499 6.24568 107.406V6.4358ZM66.0445 99.8077C66.1659 99.398 68.081 96.2226 68.4641 95.5521C69.2675 94.146 70.0896 92.7864 70.8837 91.3803C75.6201 82.9995 80.7396 74.5627 85.4667 66.2005C90.9785 56.4508 96.9948 46.5521 102.488 36.7931C102.852 36.1505 104.637 32.9845 104.945 32.6585C105.692 32.9845 115.296 38.5624 115.446 38.73L76.5543 105.879L66.0445 99.8077ZM111.802 20.795L114.474 22.3035C115.389 22.8157 116.202 23.2999 117.118 23.8214C117.818 24.2125 122.041 26.5778 122.312 26.8757L118.584 33.3662C118.257 33.2824 108.261 27.5462 108 27.2855L111.802 20.795ZM117.445 11.036C120.995 5.95157 129.384 9.0618 128.45 15.4126C128.254 16.7535 127.646 17.6941 127.076 18.6439L125.451 21.5027C124.89 21.3444 118.603 17.6009 117.482 16.9677C116.809 16.5952 115.399 15.8689 114.894 15.4499L117.445 11.036ZM96.752 0.308472H2.79844C2.35937 0.531961 1.87358 0.578522 1.42516 0.876507C-0.0789231 1.89152 0.107919 3.45594 0.107919 4.97381V107.937C0.107919 111.485 -0.209712 111.401 1.83621 113.441L23.9676 135.51C24.5282 136.069 25.0887 136.795 26.2845 136.935C27.2747 137.047 28.8722 136.953 29.9372 136.953C52.0313 136.953 74.1814 137.065 96.2662 136.953C97.5554 136.944 98.2934 136.423 98.8166 135.752C99.5079 134.849 99.4425 134.057 99.4425 132.772V110.712C99.4425 100.329 99.5079 89.7321 99.4331 79.3864C99.4331 78.4552 99.4331 78.5855 99.8255 77.9244L109.27 61.6283C111.092 58.5274 112.83 55.3892 114.67 52.3069C116.492 49.234 118.257 46.161 120.032 43.0321L132.205 22.0242C132.644 21.2885 133.121 20.497 133.504 19.6775C136.176 13.9786 133.952 7.43219 129.048 4.32196C125.684 2.18019 121.387 1.65872 117.333 3.47457C114.689 4.66651 113.026 6.42649 111.606 8.84762L100.834 27.4438C100.517 27.9746 99.8068 29.3621 99.4892 29.7159C99.3677 28.7661 99.4518 7.59981 99.4518 5.57909C99.4518 4.39646 99.6106 2.95309 99.0968 1.97533C98.4055 0.643706 97.4059 0.634393 96.752 0.308472Z" fill="#FFCC00"/>
</svg>
