<svg width="124" height="143" viewBox="0 0 124 143" fill="none" xmlns="http://www.w3.org/2000/svg">
    <path fill-rule="evenodd" clip-rule="evenodd" d="M123.123 68.8108C123.114 70.6639 123.039 72.5264 123.03 74.3794C123.02 78.5699 123.011 82.751 123.011 86.9321C123.011 95.2571 122.936 103.582 123.03 111.907C123.086 116.749 123.03 121.592 123.048 126.434C123.048 128.296 123.086 130.159 123.123 132.012C123.151 133.371 123.188 134.74 123.16 136.1C123.114 137.701 123.02 139.825 121.806 141.035C120.479 142.367 117.994 142.385 116.238 142.385L7.65462 142.376C0.134221 142.376 0.377114 140.43 0.377114 133.744V76.2046C0.377114 74.0442 0.190278 71.9211 0.068831 69.77C-0.0339321 67.9169 -0.0713051 66.0265 0.321063 64.2014C0.788168 61.9851 1.84383 60.1693 3.38528 58.521L5.94501 55.7926C11.0365 50.6523 16.3241 45.7076 21.5463 40.6978C22.1068 40.1577 24.4704 38.1649 24.5919 37.4758C24.6759 36.9916 24.6759 36.3304 24.6946 35.8369C24.7226 34.766 24.7226 33.7044 24.732 32.6335C24.7413 29.6816 24.7133 26.7297 24.6853 23.7778C24.6572 21.1704 24.6292 18.563 24.6105 15.965C24.6012 14.1957 24.5732 12.4078 24.6292 10.6478V10.6198C24.76 8.55257 24.4424 7.16507 25.414 5.19092C26.7872 2.36006 29.4497 0.721137 32.5887 0.600081C34.2796 0.534896 35.9705 0.590768 37.6614 0.590768L88.2863 0.572144C96.8904 0.562832 98.9083 3.7103 98.8242 11.8863L98.8149 28.2941C98.8429 30.7152 98.8336 33.1364 98.8336 35.5575C98.8336 36.0138 98.7495 37.4013 98.927 37.8017C99.1232 38.2487 100.674 39.571 101.057 39.9249C107.26 45.7728 113.286 51.7977 119.377 57.7574L119.396 57.7668L119.405 57.7761C123.235 61.9106 123.17 62.5345 123.123 68.8108ZM10.2237 59.5733L24.6292 59.5826L24.6199 45.5773C24.2555 45.9032 23.9099 46.2477 23.6109 46.5364C22.929 47.1976 22.2657 47.896 21.5837 48.5385L10.2237 59.5733ZM98.8616 45.717L98.8242 59.5826L113.295 59.6105C113.211 59.5174 113.136 59.4243 113.052 59.3312C112.426 58.6235 111.772 57.9344 111.109 57.2639C109.381 55.5132 107.596 53.8184 105.812 52.1423C103.514 49.9819 101.169 47.868 98.8616 45.717ZM24.6572 83.198L24.6386 65.4213L9.76593 65.4026C9.82198 65.4678 9.87804 65.533 9.93409 65.6168L11.9613 68.0938C12.3443 68.4942 12.6993 68.9133 13.0357 69.3323L24.6572 83.198ZM98.8336 65.4119L98.8429 83.1235L113.529 65.4399L98.8336 65.4119ZM44.3878 107.149L48.0592 104.662C50.1612 103.172 52.2164 101.627 54.3371 100.146C55.5889 99.2706 60.288 95.9089 61.7174 95.9182C63.0066 95.9275 67.9112 99.4102 69.0789 100.22C71.1529 101.654 73.1801 103.126 75.2354 104.578C75.9454 105.081 76.6647 105.575 77.3841 106.087C77.8979 106.45 78.4491 106.841 79.0096 107.176C81.2611 104.988 83.3537 102.362 85.2969 99.9317C87.2774 97.4547 89.2112 94.9218 91.2571 92.5007C91.7242 91.942 92.8733 90.7221 93.1068 90.0423C93.2376 89.6419 93.2283 89.1204 93.2189 88.7014C93.2002 87.6584 93.1629 86.6155 93.1629 85.5632C93.1629 73.0851 93.1162 60.5976 93.1629 48.1195C93.2003 35.7065 93.1722 23.3029 93.1535 10.8992C93.1535 9.89351 93.1816 7.70517 92.4062 6.92296C91.7055 6.23387 89.9586 6.19662 89.0524 6.178C87.8753 6.15937 86.6795 6.18731 85.5024 6.20593C83.8301 6.24318 82.1672 6.27112 80.5043 6.27112L33.7565 6.25249C32.9344 6.25249 31.4396 6.28043 30.8511 6.97883C30.2065 7.7238 30.2718 9.74451 30.2718 10.6664L30.2905 89.8095C30.412 90.0889 30.7763 90.5824 30.9351 90.7966C31.4489 91.5229 31.9908 92.2306 32.5326 92.9291C34.0647 94.8939 35.6436 96.8308 37.2317 98.7491C38.8572 100.714 40.5015 102.669 42.1737 104.606C42.7529 105.286 43.3415 105.957 43.93 106.627C44.0608 106.776 44.229 106.972 44.3878 107.149ZM55.5516 44.1991C54.4399 44.3108 53.1787 44.3015 52.0483 44.3202C50.0304 44.3481 48.0125 44.3574 45.9946 44.3481C43.958 44.3388 41.9215 44.3108 39.8942 44.2177C39.0347 44.1805 36.9888 44.1153 36.2134 43.7801C34.4945 43.0537 33.1399 41.3962 32.897 39.5338C32.6167 37.3454 32.6728 34.8498 32.7101 32.6335C32.7475 30.5663 32.8316 28.4897 32.8316 26.4224C32.8316 24.709 32.8316 22.8186 33.1305 21.1238C33.3454 19.9505 33.7284 18.7865 34.6346 17.9484C36.0266 16.6634 38.3621 16.5702 40.1558 16.5423C41.6505 16.5144 43.1546 16.5609 44.6493 16.5889C46.6766 16.6354 48.6945 16.6727 50.7217 16.6727C52.0857 16.6727 53.3842 16.5702 54.7575 16.6913C57.7843 16.9707 60.0451 18.293 60.4188 21.5429C60.6804 23.7871 60.643 26.1989 60.6057 28.4524C60.5683 30.5197 60.4936 32.587 60.4936 34.6449C60.4936 36.6191 60.8299 39.1985 59.9797 41.0144C59.1389 42.8209 57.5601 44.0129 55.5516 44.1991ZM68.3316 87.6677C68.2755 87.826 68.1914 87.975 68.0887 88.1147C66.9303 89.735 63.4643 89.4929 61.6987 89.465C61.0261 89.4463 60.3441 89.437 59.6715 89.4463C56.6166 89.5115 53.5617 89.5488 50.5162 89.6233C48.1993 89.6698 45.8825 89.7536 43.575 89.8095C42.0522 89.8374 40.5201 89.8747 38.9974 89.884C38.4462 89.884 37.895 89.884 37.3438 89.8747C37.0449 89.8654 36.6525 89.8654 36.3629 89.8002C34.5225 89.4091 33.6257 87.3418 34.5038 85.6936C35.4007 84.0081 38.7358 84.064 40.3707 84.0733C41.3703 84.0733 42.3699 84.1105 43.3788 84.0826C46.4337 84.0267 49.4886 83.9895 52.5434 83.9522L66.3043 83.7474L66.3978 83.766C68.1728 84.1664 68.9949 86.0102 68.3316 87.6677ZM66.977 63.8196C65.9493 65.9148 60.1012 65.3468 58.0646 65.384L39.6794 65.7006C38.8105 65.7192 37.9604 65.7751 37.0916 65.7658C35.8117 65.7565 33.9526 65.6261 33.1399 64.4807C32.5607 63.6613 32.7195 62.6556 33.0932 61.7802C34.1769 59.2381 39.5018 60.0389 41.772 60.0016L64.9965 59.6571L65.0899 59.6757C66.9022 60.1041 67.7804 62.19 66.977 63.8196ZM67.6309 75.6273C67.5001 75.8694 67.3413 76.0929 67.1545 76.2884C66.267 77.1824 64.8283 77.3314 63.6325 77.3779C62.091 77.4431 60.5403 77.3593 58.9988 77.4245C55.9346 77.5455 52.8704 77.5455 49.8155 77.5828L35.8397 77.769L35.765 77.7504C33.9526 77.4152 33.0465 75.5155 33.7378 73.8393C34.4384 72.1166 36.0733 72.1725 37.6428 72.1539C42.2017 72.098 46.77 71.949 51.3289 71.8559C54.4492 71.7907 57.5695 71.7255 60.6897 71.6883C61.7828 71.679 62.8758 71.6696 63.9688 71.679C64.4453 71.679 65.1926 71.651 65.6597 71.7441C67.332 72.0607 68.4157 74.0628 67.6309 75.6273ZM67.0237 20.1833C66.8368 19.308 66.8929 18.3954 67.5188 17.7063C68.4157 16.7099 70.0972 16.6447 71.3397 16.6634L83.7087 16.6727C85.8013 16.682 88.7534 16.2536 89.2018 19.0472C89.3046 19.7363 89.2299 20.4347 88.8281 21.0121C88.0527 22.1016 86.4366 22.3251 85.2034 22.4089C83.5499 22.5113 81.8496 22.3996 80.1961 22.3623C79.6916 22.3437 79.1871 22.3437 78.6733 22.3437C76.6087 22.3623 74.5441 22.353 72.4795 22.353C70.5176 22.353 67.5749 22.7255 67.0237 20.1833ZM84.6242 33.2947L72.2553 33.2761C70.2467 33.2761 67.2479 33.574 66.9957 30.827C66.9209 29.9423 67.0611 29.0298 67.7524 28.4059C68.7053 27.5492 70.3682 27.633 71.5733 27.6423C73.6285 27.6516 75.6932 27.6423 77.7484 27.6423C79.813 27.6423 81.8776 27.6423 83.9329 27.6423C86.0816 27.633 89.0337 27.307 89.2579 30.2683C89.3233 31.0877 89.1551 31.9072 88.5292 32.4845C87.5576 33.3785 85.8667 33.2947 84.6242 33.2947ZM67.005 41.7966C66.9116 40.8933 67.0704 39.9807 67.7804 39.3568C68.752 38.5001 70.3495 38.5746 71.564 38.5746H83.9329C86.0816 38.5746 89.0804 38.2859 89.2579 41.2286C89.3046 42.0387 89.1271 42.8209 88.5199 43.3889C87.5483 44.2922 85.8667 44.2363 84.6242 44.227L72.2553 44.2177C70.2374 44.2084 67.2759 44.5623 67.005 41.7966ZM73.2175 87.0531C73.0867 86.2523 73.1988 85.4608 73.722 84.8183C75.2354 82.9652 79.2618 83.6915 81.4199 83.6915C82.0084 83.6915 82.597 83.6729 83.1855 83.6542C85.082 83.5891 88.7628 83.2538 90.0613 84.9207C90.3042 85.228 90.4537 85.5818 90.5284 85.9636C90.6686 86.7458 90.5845 87.5188 90.0893 88.1613C88.6039 90.0703 84.4841 89.3532 82.3354 89.3532C81.7562 89.3532 81.177 89.3718 80.5978 89.3905C78.7107 89.4557 74.9925 89.8188 73.6939 88.1613C73.4324 87.8354 73.2829 87.4629 73.2175 87.0531ZM86.6795 77.3034L79.813 77.2941C77.5616 77.2848 73.0026 78.1136 72.5636 74.9195C72.4515 74.0908 72.5822 73.2713 73.1614 72.6381C74.5347 71.1482 77.5242 71.651 79.3553 71.651C80.6632 71.6417 81.9804 71.5858 83.2883 71.5672C84.6055 71.5393 86.3805 71.4741 87.6604 71.7069C90.8834 72.2749 90.818 77.3127 86.6795 77.3034ZM88.9683 63.773C87.95 65.6354 86.175 65.2723 84.3906 65.2629L74.3012 65.1791L74.2358 65.1698C72.2272 64.8346 71.237 62.7673 72.2272 60.9608C73.068 59.4336 76.3004 59.4615 77.8138 59.4709C79.1684 59.4895 80.523 59.6012 81.8776 59.6012C82.653 59.6105 83.4471 59.5733 84.2225 59.5547C85.0726 59.536 86.1003 59.5081 86.9317 59.6478C88.7908 59.9644 89.9025 62.0689 88.9683 63.773ZM38.5583 38.4908L54.6828 38.5653C54.7762 37.8855 54.8042 36.7308 54.8136 36.3304C54.8696 34.6636 54.8696 32.9874 54.8696 31.3205C54.8603 28.8528 54.7949 26.3665 54.8136 23.9081C54.8136 23.6474 54.8416 22.8186 54.7668 22.4555C52.7957 22.0737 41.445 22.1016 38.6143 22.3903C38.5863 22.5858 38.577 22.8 38.5676 22.9304C38.5116 23.5915 38.4836 24.262 38.4649 24.9325C38.3995 26.7949 38.3808 28.6573 38.3808 30.529C38.3808 32.3542 38.3995 34.1886 38.4462 36.0138C38.4649 36.6843 38.4929 37.3547 38.5303 38.0252C38.5396 38.1649 38.5396 38.3325 38.5583 38.4908ZM6.11317 70.0307L6.06646 133.753L22.5553 122.402C25.4513 120.297 28.4315 118.258 31.3649 116.218C33.2987 114.878 35.2418 113.527 37.185 112.205C37.8763 111.739 38.5676 111.274 39.2683 110.817C39.4084 110.724 39.5766 110.613 39.7541 110.501C39.1375 109.532 37.7362 107.996 37.213 107.4C36.1667 106.199 35.1297 104.997 34.1769 103.731C29.702 97.7806 24.9001 92.0351 20.0703 86.3641C15.4272 80.9072 10.7188 75.5155 6.11317 70.0307ZM83.7928 110.473L96.2925 119.189C99.964 121.75 103.617 124.339 107.288 126.899C109.736 128.604 112.183 130.308 114.65 131.993C115.509 132.58 116.378 133.166 117.247 133.744C117.294 133.781 117.35 133.818 117.406 133.856L117.368 70.0121L114.229 73.6438C112.8 75.4783 111.202 77.1637 109.801 79.0075L109.782 79.0355L103.243 86.8948C102.496 87.8167 101.72 88.72 100.982 89.6512C99.8612 91.076 98.6747 92.4728 97.5163 93.8696C95.816 95.8996 94.1064 97.9296 92.4062 99.969C90.407 102.353 88.3984 104.746 86.4272 107.158C85.7359 108.005 85.0446 108.853 84.3813 109.719C84.2318 109.905 83.9889 110.194 83.7928 110.473ZM12.0921 136.686C45.2379 136.742 78.3744 136.938 111.52 136.742C109.979 135.56 108.372 134.442 106.746 133.381C99.0204 128.38 91.7429 122.69 84.073 117.606C82.5035 116.563 80.9528 115.464 79.4113 114.375C77.3093 112.894 75.2074 111.404 73.1054 109.924C70.7419 108.247 68.3689 106.571 65.9774 104.914C65.0525 104.28 64.1276 103.647 63.1841 103.023C62.717 102.716 62.2405 102.39 61.7454 102.101L29.6833 124.376C27.544 125.903 25.3205 127.309 23.1905 128.874L12.0921 136.686ZM30.0663 127.737C30.4867 127.57 32.6261 127.588 33.1212 127.579C35.4007 127.542 37.6801 127.523 39.9596 127.514C46.7607 127.477 53.5617 127.477 60.3628 127.477C69.901 127.486 79.4487 127.495 88.987 127.542C90.5284 127.551 92.4716 127.998 92.7425 129.795C92.92 131.006 92.1259 132.487 90.9955 132.952C90.5284 133.148 88.3797 133.148 87.8379 133.166C85.5491 133.213 83.2509 133.232 80.9621 133.25C74.161 133.287 67.3693 133.287 60.5776 133.278C51.03 133.26 41.473 133.194 31.9254 133.213C30.3559 133.213 28.4314 132.701 28.1792 130.876C27.9924 129.581 28.8612 128.212 30.0663 127.737Z" fill="#FFCC00"/>
</svg>
